<svg id="Icons" height="512" viewBox="0 0 74 74" width="512" xmlns="http://www.w3.org/2000/svg"><path d="m71 43.44a1 1 0 0 1 -1-1v-2.97a1 1 0 0 1 2 0v2.97a1 1 0 0 1 -1 1z"/><path fill="#484647" d="m68 72h-62a4 4 0 0 1 -4-4v-62a4 4 0 0 1 4-4h62a4 4 0 0 1 4 4v16.56a1 1 0 1 1 -2 0v-16.56a2 2 0 0 0 -2-2h-62a2 2 0 0 0 -2 2v62a2 2 0 0 0 2 2h62a2 2 0 0 0 2-2v-18.56a1 1 0 0 1 2 0v18.56a4 4 0 0 1 -4 4z"/><path d="m71 33.47a1 1 0 0 1 -1-1v-2.91a1 1 0 0 1 2 0v2.91a1 1 0 0 1 -1 1z"/><path d="m41.4 33.6a1 1 0 0 1 -.707-1.707l17.6-17.6a1 1 0 0 1 1.414 1.414l-17.6 17.6a1 1 0 0 1 -.707.293z"/><path d="m59 25.263a1 1 0 0 1 -1-1v-8.263h-8.263a1 1 0 1 1 0-2h9.263a1 1 0 0 1 1 1v9.263a1 1 0 0 1 -1 1z"/><path d="m15 60a1 1 0 0 1 -.707-1.707l17.6-17.6a1 1 0 0 1 1.414 1.414l-17.6 17.6a1 1 0 0 1 -.707.293z"/><path d="m24.263 60h-9.263a1 1 0 0 1 -1-1v-9.263a1 1 0 1 1 2 0v8.263h8.263a1 1 0 1 1 0 2z"/></svg>